
  <svg width="782" height="138" viewBox="0 0 782 138" xmlns="http://www.w3.org/2000/svg">
    <rect width="100%" height="100%" fill="transparent"/>

    <circle cx="118" cy="34" r="3" fill="#2ea44f"/><circle cx="146" cy="20" r="3" fill="#2ea44f"/><circle cx="146" cy="34" r="3" fill="#2ea44f"/><circle cx="146" cy="48" r="3" fill="#2ea44f"/><circle cx="146" cy="62" r="3" fill="#2ea44f"/><circle cx="160" cy="48" r="3" fill="#2ea44f"/><circle cx="160" cy="62" r="3" fill="#2ea44f"/><circle cx="160" cy="76" r="3" fill="#2ea44f"/><circle cx="160" cy="90" r="3" fill="#2ea44f"/><circle cx="160" cy="104" r="3" fill="#2ea44f"/><circle cx="174" cy="48" r="3" fill="#2ea44f"/><circle cx="174" cy="76" r="3" fill="#2ea44f"/><circle cx="174" cy="90" r="3" fill="#2ea44f"/><circle cx="188" cy="48" r="3" fill="#2ea44f"/><circle cx="188" cy="62" r="3" fill="#2ea44f"/><circle cx="216" cy="104" r="3" fill="#2ea44f"/><circle cx="230" cy="48" r="3" fill="#2ea44f"/><circle cx="230" cy="62" r="3" fill="#2ea44f"/><circle cx="244" cy="90" r="3" fill="#2ea44f"/><circle cx="258" cy="62" r="3" fill="#2ea44f"/><circle cx="342" cy="62" r="3" fill="#2ea44f"/><circle cx="342" cy="76" r="3" fill="#2ea44f"/><circle cx="342" cy="90" r="3" fill="#2ea44f"/><circle cx="356" cy="48" r="3" fill="#2ea44f"/><circle cx="370" cy="20" r="3" fill="#2ea44f"/><circle cx="370" cy="34" r="3" fill="#2ea44f"/><circle cx="384" cy="62" r="3" fill="#2ea44f"/><circle cx="384" cy="76" r="3" fill="#2ea44f"/><circle cx="384" cy="90" r="3" fill="#2ea44f"/><circle cx="398" cy="20" r="3" fill="#2ea44f"/><circle cx="398" cy="34" r="3" fill="#2ea44f"/><circle cx="398" cy="48" r="3" fill="#2ea44f"/><circle cx="398" cy="62" r="3" fill="#2ea44f"/><circle cx="398" cy="76" r="3" fill="#2ea44f"/><circle cx="398" cy="104" r="3" fill="#2ea44f"/><circle cx="412" cy="20" r="3" fill="#2ea44f"/><circle cx="412" cy="34" r="3" fill="#2ea44f"/><circle cx="412" cy="48" r="3" fill="#2ea44f"/><circle cx="412" cy="76" r="3" fill="#2ea44f"/><circle cx="412" cy="90" r="3" fill="#2ea44f"/><circle cx="412" cy="104" r="3" fill="#2ea44f"/><circle cx="426" cy="20" r="3" fill="#2ea44f"/><circle cx="426" cy="34" r="3" fill="#2ea44f"/><circle cx="426" cy="48" r="3" fill="#2ea44f"/><circle cx="426" cy="62" r="3" fill="#2ea44f"/><circle cx="426" cy="76" r="3" fill="#2ea44f"/><circle cx="426" cy="90" r="3" fill="#2ea44f"/><circle cx="426" cy="104" r="3" fill="#2ea44f"/><circle cx="440" cy="20" r="3" fill="#2ea44f"/><circle cx="440" cy="34" r="3" fill="#2ea44f"/><circle cx="440" cy="48" r="3" fill="#2ea44f"/><circle cx="440" cy="62" r="3" fill="#2ea44f"/><circle cx="440" cy="76" r="3" fill="#2ea44f"/><circle cx="440" cy="90" r="3" fill="#2ea44f"/><circle cx="440" cy="104" r="3" fill="#2ea44f"/><circle cx="454" cy="20" r="3" fill="#2ea44f"/><circle cx="454" cy="34" r="3" fill="#2ea44f"/><circle cx="454" cy="48" r="3" fill="#2ea44f"/><circle cx="454" cy="62" r="3" fill="#2ea44f"/><circle cx="454" cy="76" r="3" fill="#2ea44f"/><circle cx="454" cy="90" r="3" fill="#2ea44f"/><circle cx="468" cy="20" r="3" fill="#2ea44f"/><circle cx="468" cy="34" r="3" fill="#2ea44f"/><circle cx="468" cy="48" r="3" fill="#2ea44f"/><circle cx="468" cy="62" r="3" fill="#2ea44f"/><circle cx="468" cy="76" r="3" fill="#2ea44f"/><circle cx="468" cy="90" r="3" fill="#2ea44f"/><circle cx="468" cy="104" r="3" fill="#2ea44f"/><circle cx="482" cy="20" r="3" fill="#2ea44f"/><circle cx="482" cy="34" r="3" fill="#2ea44f"/><circle cx="482" cy="48" r="3" fill="#2ea44f"/><circle cx="482" cy="62" r="3" fill="#2ea44f"/><circle cx="482" cy="90" r="3" fill="#2ea44f"/><circle cx="482" cy="104" r="3" fill="#2ea44f"/><circle cx="496" cy="20" r="3" fill="#2ea44f"/><circle cx="496" cy="34" r="3" fill="#2ea44f"/><circle cx="496" cy="48" r="3" fill="#2ea44f"/><circle cx="496" cy="62" r="3" fill="#2ea44f"/><circle cx="496" cy="76" r="3" fill="#2ea44f"/><circle cx="496" cy="90" r="3" fill="#2ea44f"/><circle cx="496" cy="104" r="3" fill="#2ea44f"/><circle cx="510" cy="20" r="3" fill="#2ea44f"/><circle cx="510" cy="48" r="3" fill="#2ea44f"/><circle cx="510" cy="62" r="3" fill="#2ea44f"/><circle cx="510" cy="76" r="3" fill="#2ea44f"/><circle cx="510" cy="90" r="3" fill="#2ea44f"/><circle cx="510" cy="104" r="3" fill="#2ea44f"/><circle cx="524" cy="20" r="3" fill="#2ea44f"/><circle cx="524" cy="34" r="3" fill="#2ea44f"/><circle cx="524" cy="48" r="3" fill="#2ea44f"/><circle cx="524" cy="62" r="3" fill="#2ea44f"/><circle cx="524" cy="76" r="3" fill="#2ea44f"/><circle cx="524" cy="90" r="3" fill="#2ea44f"/><circle cx="524" cy="104" r="3" fill="#2ea44f"/><circle cx="538" cy="20" r="3" fill="#2ea44f"/><circle cx="538" cy="34" r="3" fill="#2ea44f"/><circle cx="538" cy="48" r="3" fill="#2ea44f"/><circle cx="538" cy="62" r="3" fill="#2ea44f"/><circle cx="538" cy="76" r="3" fill="#2ea44f"/><circle cx="538" cy="90" r="3" fill="#2ea44f"/><circle cx="538" cy="104" r="3" fill="#2ea44f"/><circle cx="552" cy="20" r="3" fill="#2ea44f"/><circle cx="552" cy="34" r="3" fill="#2ea44f"/><circle cx="552" cy="48" r="3" fill="#2ea44f"/><circle cx="552" cy="76" r="3" fill="#2ea44f"/><circle cx="552" cy="90" r="3" fill="#2ea44f"/><circle cx="552" cy="104" r="3" fill="#2ea44f"/><circle cx="566" cy="34" r="3" fill="#2ea44f"/><circle cx="566" cy="62" r="3" fill="#2ea44f"/><circle cx="566" cy="90" r="3" fill="#2ea44f"/><circle cx="566" cy="104" r="3" fill="#2ea44f"/><circle cx="580" cy="20" r="3" fill="#2ea44f"/><circle cx="580" cy="34" r="3" fill="#2ea44f"/><circle cx="580" cy="48" r="3" fill="#2ea44f"/><circle cx="580" cy="62" r="3" fill="#2ea44f"/><circle cx="580" cy="76" r="3" fill="#2ea44f"/><circle cx="580" cy="90" r="3" fill="#2ea44f"/><circle cx="580" cy="104" r="3" fill="#2ea44f"/><circle cx="594" cy="20" r="3" fill="#2ea44f"/><circle cx="594" cy="34" r="3" fill="#2ea44f"/><circle cx="594" cy="62" r="3" fill="#2ea44f"/><circle cx="594" cy="76" r="3" fill="#2ea44f"/><circle cx="594" cy="90" r="3" fill="#2ea44f"/><circle cx="594" cy="104" r="3" fill="#2ea44f"/><circle cx="608" cy="20" r="3" fill="#2ea44f"/><circle cx="608" cy="34" r="3" fill="#2ea44f"/><circle cx="608" cy="48" r="3" fill="#2ea44f"/><circle cx="608" cy="62" r="3" fill="#2ea44f"/><circle cx="608" cy="76" r="3" fill="#2ea44f"/><circle cx="608" cy="90" r="3" fill="#2ea44f"/><circle cx="608" cy="104" r="3" fill="#2ea44f"/><circle cx="622" cy="20" r="3" fill="#2ea44f"/><circle cx="622" cy="34" r="3" fill="#2ea44f"/><circle cx="622" cy="48" r="3" fill="#2ea44f"/><circle cx="622" cy="62" r="3" fill="#2ea44f"/><circle cx="622" cy="76" r="3" fill="#2ea44f"/><circle cx="622" cy="90" r="3" fill="#2ea44f"/><circle cx="636" cy="20" r="3" fill="#2ea44f"/><circle cx="636" cy="34" r="3" fill="#2ea44f"/><circle cx="636" cy="48" r="3" fill="#2ea44f"/><circle cx="636" cy="76" r="3" fill="#2ea44f"/><circle cx="636" cy="90" r="3" fill="#2ea44f"/><circle cx="636" cy="104" r="3" fill="#2ea44f"/><circle cx="650" cy="20" r="3" fill="#2ea44f"/><circle cx="650" cy="34" r="3" fill="#2ea44f"/><circle cx="650" cy="48" r="3" fill="#2ea44f"/><circle cx="650" cy="62" r="3" fill="#2ea44f"/><circle cx="650" cy="76" r="3" fill="#2ea44f"/><circle cx="650" cy="90" r="3" fill="#2ea44f"/><circle cx="650" cy="104" r="3" fill="#2ea44f"/><circle cx="664" cy="20" r="3" fill="#2ea44f"/><circle cx="664" cy="34" r="3" fill="#2ea44f"/><circle cx="664" cy="48" r="3" fill="#2ea44f"/><circle cx="664" cy="62" r="3" fill="#2ea44f"/><circle cx="664" cy="76" r="3" fill="#2ea44f"/><circle cx="664" cy="104" r="3" fill="#2ea44f"/><circle cx="678" cy="20" r="3" fill="#2ea44f"/><circle cx="678" cy="48" r="3" fill="#2ea44f"/><circle cx="678" cy="62" r="3" fill="#2ea44f"/><circle cx="678" cy="76" r="3" fill="#2ea44f"/><circle cx="678" cy="90" r="3" fill="#2ea44f"/><circle cx="692" cy="34" r="3" fill="#2ea44f"/><circle cx="692" cy="48" r="3" fill="#2ea44f"/><circle cx="692" cy="76" r="3" fill="#2ea44f"/><circle cx="692" cy="90" r="3" fill="#2ea44f"/><circle cx="692" cy="104" r="3" fill="#2ea44f"/><circle cx="706" cy="34" r="3" fill="#2ea44f"/><circle cx="706" cy="48" r="3" fill="#2ea44f"/><circle cx="706" cy="62" r="3" fill="#2ea44f"/><circle cx="706" cy="90" r="3" fill="#2ea44f"/><circle cx="720" cy="20" r="3" fill="#2ea44f"/><circle cx="720" cy="34" r="3" fill="#2ea44f"/><circle cx="720" cy="48" r="3" fill="#2ea44f"/><circle cx="720" cy="62" r="3" fill="#2ea44f"/><circle cx="720" cy="76" r="3" fill="#2ea44f"/><circle cx="720" cy="90" r="3" fill="#2ea44f"/><circle cx="720" cy="104" r="3" fill="#2ea44f"/><circle cx="734" cy="20" r="3" fill="#2ea44f"/><circle cx="734" cy="34" r="3" fill="#2ea44f"/><circle cx="734" cy="48" r="3" fill="#2ea44f"/><circle cx="734" cy="62" r="3" fill="#2ea44f"/><circle cx="734" cy="76" r="3" fill="#2ea44f"/><circle cx="734" cy="90" r="3" fill="#2ea44f"/><circle cx="734" cy="104" r="3" fill="#2ea44f"/><circle cx="748" cy="34" r="3" fill="#2ea44f"/><circle cx="748" cy="48" r="3" fill="#2ea44f"/>

    <!-- Pac-Man -->
    <g>
      <circle r="6" fill="gold">
        <animateMotion dur="27.9s" repeatCount="indefinite"
          path="M 118 34 L 146 20 L 146 34 L 146 48 L 146 62 L 160 48 L 160 62 L 160 76 L 160 90 L 160 104 L 174 48 L 174 76 L 174 90 L 188 48 L 188 62 L 216 104 L 230 48 L 230 62 L 244 90 L 258 62 L 342 62 L 342 76 L 342 90 L 356 48 L 370 20 L 370 34 L 384 62 L 384 76 L 384 90 L 398 20 L 398 34 L 398 48 L 398 62 L 398 76 L 398 104 L 412 20 L 412 34 L 412 48 L 412 76 L 412 90 L 412 104 L 426 20 L 426 34 L 426 48 L 426 62 L 426 76 L 426 90 L 426 104 L 440 20 L 440 34 L 440 48 L 440 62 L 440 76 L 440 90 L 440 104 L 454 20 L 454 34 L 454 48 L 454 62 L 454 76 L 454 90 L 468 20 L 468 34 L 468 48 L 468 62 L 468 76 L 468 90 L 468 104 L 482 20 L 482 34 L 482 48 L 482 62 L 482 90 L 482 104 L 496 20 L 496 34 L 496 48 L 496 62 L 496 76 L 496 90 L 496 104 L 510 20 L 510 48 L 510 62 L 510 76 L 510 90 L 510 104 L 524 20 L 524 34 L 524 48 L 524 62 L 524 76 L 524 90 L 524 104 L 538 20 L 538 34 L 538 48 L 538 62 L 538 76 L 538 90 L 538 104 L 552 20 L 552 34 L 552 48 L 552 76 L 552 90 L 552 104 L 566 34 L 566 62 L 566 90 L 566 104 L 580 20 L 580 34 L 580 48 L 580 62 L 580 76 L 580 90 L 580 104 L 594 20 L 594 34 L 594 62 L 594 76 L 594 90 L 594 104 L 608 20 L 608 34 L 608 48 L 608 62 L 608 76 L 608 90 L 608 104 L 622 20 L 622 34 L 622 48 L 622 62 L 622 76 L 622 90 L 636 20 L 636 34 L 636 48 L 636 76 L 636 90 L 636 104 L 650 20 L 650 34 L 650 48 L 650 62 L 650 76 L 650 90 L 650 104 L 664 20 L 664 34 L 664 48 L 664 62 L 664 76 L 664 104 L 678 20 L 678 48 L 678 62 L 678 76 L 678 90 L 692 34 L 692 48 L 692 76 L 692 90 L 692 104 L 706 34 L 706 48 L 706 62 L 706 90 L 720 20 L 720 34 L 720 48 L 720 62 L 720 76 L 720 90 L 720 104 L 734 20 L 734 34 L 734 48 L 734 62 L 734 76 L 734 90 L 734 104 L 748 34 L 748 48"/>
      </circle>

      <!-- Mouth -->
      <path d="M0 0 L6 -4 A6 6 0 1 1 6 4 Z" fill="black">
        <animateTransform attributeName="transform" type="scale"
          values="1;0.1;1" dur="0.3s" repeatCount="indefinite"/>
      </path>
    </g>
  </svg>
  